<svg width="60" height="60" viewBox="0 0 60 60" fill="none" xmlns="http://www.w3.org/2000/svg">
<g clip-path="url(#clip0_964_8412)">
<path d="M59.7227 39.1324C59.3964 44.4695 57.1336 49.5041 53.3589 53.2921C49.5841 57.0801 44.5567 59.3611 39.2195 59.7074C36.2773 59.8922 33.1964 60 29.9769 60C26.7574 60 23.6919 59.8922 20.7343 59.7074C15.4173 59.3653 10.4077 57.0962 6.64445 53.3254C2.88126 49.5547 0.622883 44.5412 0.292683 39.2248C0.107831 36.2834 0 33.2033 0 29.9846C0 26.7659 0.107831 23.7012 0.292683 20.7444C0.630891 15.4285 2.89681 10.4184 6.66568 6.65336C10.4345 2.88829 15.4476 0.626727 20.7651 0.292608C23.7073 0.107803 26.7882 0 30.0077 0C32.8421 0 35.8922 0.0770021 39.1425 0.277207C44.4782 0.607063 49.5104 2.87083 53.2962 6.64428C57.0819 10.4177 59.3614 15.4419 59.7073 20.7752C59.8922 23.7166 60 26.7967 60 30.0154C60.077 32.8337 59.923 35.883 59.7227 39.1324Z" fill="url(#paint0_linear_964_8412)"/>
<path d="M29.9923 8.71661L48.0924 19.1581L35.923 26.1807V43.2135L32.38 45.2618V24.1478L41.0064 19.1581L29.9923 12.7977L18.9782 19.1581L27.62 24.1324V45.2618L24.0616 43.2135V26.1807L11.8922 19.1581L29.9923 8.71661Z" fill="#F9FAFF"/>
<path d="M10.5212 21.5452L21.5353 27.9517V32.0482L14.0642 27.7053V40.4107L29.9923 49.6201L45.9358 40.4107V27.6899L37.9564 32.2947V28.2135L49.4788 21.5606V42.4589L29.9923 53.7012L10.5212 42.4589V21.5452Z" fill="#F9FAFF"/>
<path d="M25.4942 18.6653L30.0077 22.9466L34.5058 18.6499C33.1177 17.9233 31.5745 17.5429 30.0077 17.5411C28.4336 17.5389 26.8833 17.925 25.4942 18.6653Z" fill="#F9FAFF"/>
</g>
<defs>
<linearGradient id="paint0_linear_964_8412" x1="20.3184" y1="0.862422" x2="40.3656" y2="61.2043" gradientUnits="userSpaceOnUse">
<stop stop-color="#007E8F"/>
<stop offset="1" stop-color="#9AD023"/>
</linearGradient>
<clipPath id="clip0_964_8412">
<rect width="60" height="60" fill="white"/>
</clipPath>
</defs>
</svg>
