<svg width="28" height="28" viewBox="0 0 28 28" fill="none" xmlns="http://www.w3.org/2000/svg">
<g clip-path="url(#clip0_968_8412)">
<path d="M27.8706 18.2618C27.7183 20.7524 26.6624 23.1019 24.9008 24.8697C23.1392 26.6374 20.7931 27.7019 18.3024 27.8635C16.9294 27.9497 15.4917 28 13.9892 28C12.4868 28 11.0562 27.9497 9.67599 27.8635C7.19474 27.7038 4.8569 26.6449 3.10075 24.8852C1.34459 23.1255 0.290679 20.7859 0.136585 18.3049C0.0503209 16.9322 0 15.4949 0 13.9928C0 12.4908 0.0503209 11.0606 0.136585 9.6807C0.294416 7.19996 1.35184 4.86193 3.11065 3.1049C4.86946 1.34787 7.20888 0.292473 9.69037 0.13655C11.0634 0.050308 12.5012 0 14.0036 0C15.3263 0 16.7497 0.0359343 18.2665 0.129363C20.7565 0.283296 23.1049 1.33972 24.8715 3.10067C26.6382 4.86161 27.702 7.2062 27.8634 9.69507C27.9497 11.0678 28 12.5051 28 14.0072C28.0359 15.3224 27.9641 16.7454 27.8706 18.2618Z" fill="url(#paint0_linear_968_8412)"/>
<path d="M13.9964 4.06775L22.4431 8.94044L16.7641 12.2176V20.1663L15.1107 21.1222V11.269L19.1363 8.94044L13.9964 5.97227L8.85649 8.94044L12.8893 11.2618V21.1222L11.2288 20.1663V12.2176L5.54968 8.94044L13.9964 4.06775Z" fill="#F9FAFF"/>
<path d="M4.90991 10.0544L10.0498 13.0442V14.9559L6.56331 12.9292V18.8583L13.9964 23.1561L21.4367 18.8583V12.922L17.713 15.0709V13.1664L23.0901 10.0616V19.8142L13.9964 25.0606L4.90991 19.8142V10.0544Z" fill="#F9FAFF"/>
<path d="M11.8973 8.7105L14.0036 10.7084L16.1027 8.70331C15.4549 8.36421 14.7348 8.18668 14.0036 8.18586C13.269 8.18482 12.5455 8.36503 11.8973 8.7105Z" fill="#F9FAFF"/>
</g>
<defs>
<linearGradient id="paint0_linear_968_8412" x1="9.4819" y1="0.402464" x2="18.8373" y2="28.562" gradientUnits="userSpaceOnUse">
<stop stop-color="#007E8F"/>
<stop offset="1" stop-color="#9AD023"/>
</linearGradient>
<clipPath id="clip0_968_8412">
<rect width="28" height="28" fill="white"/>
</clipPath>
</defs>
</svg>
